<svg xmlns="http://www.w3.org/2000/svg" width="36" height="36" viewBox="0 0 36 36"><g><g><g><g opacity=".2"><path fill="#fff" d="M18 36c9.941 0 18-8.059 18-18S27.941 0 18 0 0 8.059 0 18s8.059 18 18 18z"/></g><g><g><path fill="#fff" d="M22.003 9.753l-2.117-.003c-2.378 0-3.915 1.58-3.915 4.024v1.855h-2.128a.333.333 0 0 0-.333.334v2.688c0 .184.15.333.333.333h2.128v6.783c0 .185.149.334.333.334h2.777c.184 0 .332-.15.332-.334v-6.783h2.489c.184 0 .333-.149.333-.333v-2.688a.334.334 0 0 0-.332-.334h-2.49v-1.573c0-.755.18-1.14 1.163-1.14h1.426c.184 0 .333-.15.333-.333v-2.496a.333.333 0 0 0-.332-.334z"/></g></g></g></g></g></svg>