<svg xmlns="http://www.w3.org/2000/svg" width="36" height="36" viewBox="0 0 36 36"><g><g><g opacity=".2"><path fill="#fff" d="M18 36c9.941 0 18-8.059 18-18S27.941 0 18 0 0 8.059 0 18s8.059 18 18 18z"/></g><g><path fill="#fff" d="M13.91 11.673c0 1.07-.802 1.924-2.092 1.924h-.024c-1.24 0-2.044-.855-2.044-1.924 0-1.092.828-1.923 2.093-1.923 1.265 0 2.042.831 2.067 1.923zM27 26.25h-3.698v-5.957c0-1.495-.534-2.517-1.873-2.517-1.022 0-1.629.688-1.897 1.354-.097.238-.122.568-.122.902v6.218H15.71s.05-10.09 0-11.133h3.699v1.577a.251.251 0 0 1-.012.018.204.204 0 0 0-.013.019h.025v-.037c.492-.757 1.368-1.839 3.333-1.839 2.433 0 4.257 1.591 4.257 5.01zm-13.333 0H9.97V15.117h3.697z"/></g></g></g></svg>