<svg xmlns="http://www.w3.org/2000/svg" width="36" height="36" viewBox="0 0 36 36"><g><g><g opacity=".2"><path fill="#fff" d="M18 36c9.941 0 18-8.059 18-18S27.941 0 18 0 0 8.059 0 18s8.059 18 18 18z"/></g><g><g><path fill="#fff" d="M23.092 11.436c-1.115-1.087-2.658-1.686-4.345-1.686-2.578 0-4.163 1.073-5.039 1.972-1.079 1.11-1.698 2.582-1.698 4.04 0 1.831.754 3.236 2.018 3.76a.66.66 0 0 0 .253.052c.267 0 .478-.177.551-.46.043-.164.142-.566.185-.74.092-.345.017-.51-.183-.75-.366-.44-.536-.958-.536-1.634 0-2.006 1.472-4.139 4.199-4.139 2.164 0 3.508 1.249 3.508 3.26 0 1.268-.269 2.442-.758 3.307-.34.601-.937 1.317-1.854 1.317-.396 0-.752-.165-.977-.453-.212-.273-.282-.625-.197-.992.097-.415.228-.847.355-1.265.233-.764.452-1.485.452-2.06 0-.984-.596-1.646-1.483-1.646-1.127 0-2.01 1.163-2.01 2.646 0 .728.19 1.272.277 1.481l-1.146 4.927c-.092.4-.65 3.556.273 3.808 1.037.283 1.963-2.792 2.058-3.14.076-.282.344-1.35.508-2.007.5.49 1.306.82 2.09.82 1.478 0 2.808-.675 3.743-1.901.908-1.19 1.408-2.847 1.408-4.668 0-1.423-.602-2.826-1.652-3.85z"/></g></g></g></g></svg>