<svg xmlns="http://www.w3.org/2000/svg" width="36" height="36" viewBox="0 0 36 36"><g><g><g><g opacity=".2"><path fill="#fff" d="M18 36c9.941 0 18-8.059 18-18S27.941 0 18 0 0 8.059 0 18s8.059 18 18 18z"/></g><g><path fill="#fff" d="M26.25 12.848c-.607.271-1.26.454-1.944.536a3.413 3.413 0 0 0 1.488-1.885 6.75 6.75 0 0 1-2.15.827 3.371 3.371 0 0 0-2.47-1.076c-1.87 0-3.386 1.526-3.386 3.408 0 .267.03.527.088.777a9.588 9.588 0 0 1-6.978-3.562 3.411 3.411 0 0 0-.458 1.714c0 1.182.598 2.226 1.506 2.837a3.344 3.344 0 0 1-1.533-.427v.043a3.404 3.404 0 0 0 2.715 3.342 3.352 3.352 0 0 1-1.528.059 3.392 3.392 0 0 0 3.162 2.367 6.763 6.763 0 0 1-5.012 1.41 9.53 9.53 0 0 0 5.189 1.532c6.226 0 9.631-5.193 9.631-9.697 0-.148-.003-.295-.01-.44a6.892 6.892 0 0 0 1.69-1.765z"/></g></g></g></g></svg>