<svg xmlns="http://www.w3.org/2000/svg" width="52" height="64" viewBox="0 0 52 64"><defs><linearGradient id="lhowa" x1="26" x2="26" y1="57.6" y2="37.5" gradientUnits="userSpaceOnUse"><stop offset="0" stop-color="#c3ffe8"/><stop offset="1" stop-color="#f0fff4"/></linearGradient></defs><g><g><g/><g><g><g><path fill="url(#lhowa)" d="M25.995 57.599a1.875 1.875 0 0 1-1.875-1.875V39.375a1.875 1.875 0 0 1 3.75 0v16.349c0 1.035-.84 1.875-1.875 1.875z"/></g></g><g><g><g><path fill="#8acd1d" d="M5.374 20.625C5.374 9.253 14.627 0 26 0c11.373 0 20.625 9.253 20.625 20.625 0 11.373-9.252 20.626-20.625 20.626S5.374 31.998 5.374 20.625zm45.958 20.907c-.166.561-4.138 13.822-10.697 19.444C37.9 63.32 35.158 64 32.892 64c-.874 0-1.676-.101-2.38-.248-2.418-.503-4.094-1.604-4.512-1.9-.42.297-2.095 1.398-4.513 1.9-.704.146-1.507.248-2.38.248-2.266 0-5.01-.68-7.743-3.024C4.805 55.354.833 42.093.667 41.532a1.874 1.874 0 0 1 2.048-2.39c.58.078 14.293 1.976 20.852 7.598A13.175 13.175 0 0 1 26 49.46a13.183 13.183 0 0 1 2.433-2.72c6.559-5.622 20.27-7.52 20.851-7.598a1.873 1.873 0 0 1 2.048 2.39z"/></g></g></g><g><g><g><path fill="#fff" d="M34.12 25.313c0 1.83-.94 3.584-2.58 4.814-1.04.78-2.304 1.317-3.67 1.574v.174a1.875 1.875 0 0 1-3.75 0v-.173c-1.366-.257-2.63-.795-3.67-1.574-1.64-1.23-2.58-2.985-2.58-4.815a1.875 1.875 0 0 1 3.75 0c0 1.073 1.049 2.051 2.5 2.52v-5.506c-1.366-.258-2.63-.795-3.67-1.575-1.64-1.23-2.58-2.985-2.58-4.814 0-1.83.94-3.585 2.58-4.815 1.04-.78 2.304-1.317 3.67-1.574v-.174a1.875 1.875 0 0 1 3.75 0v.174c1.366.257 2.63.794 3.67 1.574 1.64 1.23 2.58 2.985 2.58 4.815a1.875 1.875 0 0 1-3.75 0c0-1.073-1.049-2.052-2.5-2.52v5.506c1.366.257 2.63.794 3.67 1.574 1.64 1.23 2.58 2.985 2.58 4.815zm-10-11.896c-1.451.47-2.5 1.448-2.5 2.52 0 1.074 1.049 2.052 2.5 2.521zm3.75 14.416c1.451-.469 2.5-1.447 2.5-2.52s-1.049-2.052-2.5-2.52z"/></g></g></g></g></g></g></svg>