<svg xmlns="http://www.w3.org/2000/svg" width="65" height="46" viewBox="0 0 65 46"><g><g><g><g><path fill="#8acd1d" d="M60.65 14.747h.082L55.66 2.93A4.646 4.646 0 0 0 51.392.117H39.948L39.89 0l-.235.117h-13.81L25.61 0l-.058.117H14.11A4.646 4.646 0 0 0 9.84 2.931L4.955 14.312h-.187L2.405 16.51A6.812 6.812 0 0 0 0 21.703v19.76A4.54 4.54 0 0 0 4.541 46H8.326a4.54 4.54 0 0 0 4.54-4.54v-3.915h38.443V41.463A4.54 4.54 0 0 0 55.849 46H59.636a4.54 4.54 0 0 0 4.54-4.54V32.61l-.001.018V21.183a6.812 6.812 0 0 0-2.134-4.951z"/></g></g><g><g><path fill="#fff" d="M39.01 31.992H25.16a1.99 1.99 0 1 1 0-3.982h13.85a1.991 1.991 0 1 1 0 3.982z"/></g></g><g><g><path fill="#fff" d="M39.01 26.442H25.16a1.99 1.99 0 1 1 0-3.982h13.85a1.99 1.99 0 1 1 0 3.982z"/></g></g><g><g><path fill="#fff" d="M57.51 22.94H46.69v7.416h10.82z"/></g></g><g><g><path fill="#fff" d="M17.48 22.94H6.66v7.416h10.82z"/></g></g></g></g></svg>