<svg xmlns="http://www.w3.org/2000/svg" width="62" height="60" viewBox="0 0 62 60"><g><g><g><g><path fill="#8acd1d" d="M14.484 11.33L39.2 4.582l-1.309-2.646A3.483 3.483 0 0 0 33.226.363L11.1 11.33z"/></g><g><path fill="#8acd1d" d="M46.879 4.78a3.48 3.48 0 0 0-.92.125l-5.806 1.588-17.733 4.839h28.901l-1.086-3.983a3.475 3.475 0 0 0-3.356-2.569z"/></g><g><path fill="#8acd1d" d="M54.947 13.77H3.488a3.485 3.485 0 0 0-3.363 2.57A3.603 3.603 0 0 0 0 17.25V56.04a3.482 3.482 0 0 0 3.481 3.48h51.46a3.482 3.482 0 0 0 3.48-3.48v-9.713H37.764a5.922 5.922 0 0 1-5.918-5.918V32.666c0-1.601.64-3.056 1.678-4.122a5.859 5.859 0 0 1 4.233-1.79H58.421v-9.503a3.472 3.472 0 0 0-3.474-3.481z"/></g><g><path fill="#8acd1d" d="M61.997 32.651v7.75a3.47 3.47 0 0 1-1.135 2.568c-.348.32-.759.571-1.218.724a3.55 3.55 0 0 1-1.128.188H37.761a3.482 3.482 0 0 1-3.481-3.48v-7.75a3.482 3.482 0 0 1 3.481-3.481h20.755a3.478 3.478 0 0 1 2.346.912 3.47 3.47 0 0 1 1.135 2.57zM45.03 36.063c0-.961-.78-1.74-1.74-1.74h-1.156c-.404 0-.773.145-1.073.375-.41.313-.668.808-.668 1.365v1.155c0 .961.78 1.741 1.74 1.741h1.156c.961 0 1.74-.78 1.74-1.74z"/></g></g></g></g></svg>