<svg xmlns="http://www.w3.org/2000/svg" width="63" height="58" viewBox="0 0 63 58"><g><g><g><g><path fill="#8acd1d" d="M38.726 51.286a681.968 681.968 0 0 0-6.659 6.082 1.191 1.191 0 0 1-1.634 0C12.343 40.625 0 31.658 0 18.209 0 8.33 6.37 0 15.625 0 26.455 0 31.25 10.469 31.25 10.469S36.046 0 46.875 0C56.13 0 62.5 8.33 62.5 18.21c0 5.684-2.212 10.564-6.13 15.576z"/></g><g><path fill="#fff" d="M31.186 33.86a2.383 2.383 0 0 1-2.231-1.513l-5.036-12.593-2.076 4.153a2.39 2.39 0 0 1-2.153 1.33H7.212a1.202 1.202 0 0 1 0-2.403H19.69l2.076-4.154a2.404 2.404 0 0 1 4.383.183l5.038 12.595L35.06 20.61a2.385 2.385 0 0 1 2.218-1.595c.997-.011 1.9.588 2.277 1.51l2.728 6.821L44.294 24a2.413 2.413 0 0 1 2.06-1.165h8.935a1.202 1.202 0 1 1 0 2.404h-8.935l-2.003 3.346a2.404 2.404 0 0 1-4.294-.344l-2.727-6.822-3.88 10.846a2.383 2.383 0 0 1-2.219 1.595z"/></g></g></g></g></svg>