<svg xmlns="http://www.w3.org/2000/svg" width="1110" height="300" viewBox="0 0 1110 300"><defs><radialGradient id="eau9c" cx="405.35" cy="73.5" r="1298.09" gradientUnits="userSpaceOnUse"><stop offset="0" stop-color="#43a047"/><stop offset=".2" stop-color="#53aa57"/><stop offset=".77" stop-color="#71bd74"/><stop offset="1" stop-color="#81c784"/></radialGradient><linearGradient id="eau9d" x1="-81.45" x2="1097.71" y1="-1149.78" y2="-552.56" gradientUnits="userSpaceOnUse"><stop offset="0" stop-color="#43a047"/><stop offset=".2" stop-color="#53aa57"/><stop offset=".77" stop-color="#71bd74"/><stop offset="1" stop-color="#81c784"/></linearGradient><clipPath id="eau9a"><path d="M0 0h1110v300H0z"/></clipPath><clipPath id="eau9b"><path d="M0-401a5 5 0 0 1 5-5h1472a5 5 0 0 1 5 5v879.2c0 2.761-2.24 5-5 5H5a5 5 0 0 1-5-5z"/></clipPath></defs><g><g><path fill="#8acd1d" d="M0 0h1110v300H0z"/></g><g><path fill="#8acd1d" d="M0 0h1110v300H0z"/></g><g clip-path="url(#eau9a)"><g><path fill="#66bb6a" d="M0-401a5 5 0 0 1 5-5h1472a5 5 0 0 1 5 5v879.2c0 2.761-2.24 5-5 5H5a5 5 0 0 1-5-5z"/></g><g clip-path="url(#eau9b)" opacity=".5"><path fill="url(#eau9c)" d="M1283.17 607.234c0-183.063-18.63-306.464-222.85-306.464-258.55 0-281.279 145.297-482.821 59.316C385.523 278.187 463.288 19.329 177.351-29.642c-14.249-2.44-29.402-4.359-45.536-5.71C-208.079-63.793-202.448-282.5-202.448-282.5V721.1H1236.74s46.43 69.2 46.43-113.866z"/></g><g clip-path="url(#eau9b)"><path fill="url(#eau9d)" d="M145.816-953.617c0 183.063 18.63 306.464 222.85 306.464 258.55 0 281.279-145.297 482.821-59.316 201.543 85.98 105.79 366.996 445.684 395.438 339.894 28.44 334.263 247.148 334.263 247.148v-1003.6H192.246s-46.43-69.2-46.43 113.865z"/></g></g></g></svg>