<svg xmlns="http://www.w3.org/2000/svg" width="134" height="32" viewBox="0 0 134 32"><g><g><g><g><path fill="#8acd1d" d="M30.022 14.877c.52.303.872.866.87 1.512v6.502c0 .645-.35 1.208-.87 1.513v3.074A4.528 4.528 0 0 1 25.5 32H4.522A4.528 4.528 0 0 1 0 27.478V4.522A4.528 4.528 0 0 1 4.522 0h15.497a4.528 4.528 0 0 1 4.521 4.522v1.525h-1.765V4.522a2.76 2.76 0 0 0-2.756-2.757H4.522a2.76 2.76 0 0 0-2.757 2.757 2.76 2.76 0 0 0 2.757 2.757H25.5a4.528 4.528 0 0 1 4.522 4.521zm-8.375 7.998h7.494l-.012-6.478h-7.598c-.894 0-1.726.358-2.344 1.005a3.216 3.216 0 0 0-.89 2.393c.079 1.7 1.581 3.082 3.35 3.082zm3.853 7.36a2.76 2.76 0 0 0 2.757-2.757v-2.834h-6.61c-2.743 0-4.99-2.092-5.115-4.764a4.963 4.963 0 0 1 1.376-3.694 4.96 4.96 0 0 1 3.621-1.551h6.728V11.8A2.76 2.76 0 0 0 25.5 9.043H4.522a4.498 4.498 0 0 1-2.757-.946v19.38a2.76 2.76 0 0 0 2.757 2.757z"/></g><g><path fill="#8acd1d" d="M21.533 21.155a1.513 1.513 0 1 0 0-3.025 1.513 1.513 0 0 0 0 3.025z"/></g><g><path fill="#8acd1d" d="M6.268 22.066c-.8-.041-1.608-.468-1.832-.824l-.996.626c.38.604 1.273 1.115 2.21 1.302v1.13h1.177v-1.082c.643-.077 1.218-.323 1.608-.705.383-.376.576-.86.56-1.403-.053-1.608-2.013-1.942-2.658-2.051-1.657-.283-1.671-.769-1.677-.93a.661.661 0 0 1 .207-.524c.273-.267.797-.419 1.342-.395.801.041 1.608.468 1.832.824l.996-.626c-.38-.604-1.27-1.115-2.21-1.302V14.98H5.65v1.076c-.642.077-1.22.325-1.608.707-.382.376-.576.86-.56 1.403.054 1.608 2.014 1.942 2.658 2.051 1.657.283 1.671.769 1.677.93a.664.664 0 0 1-.207.524c-.27.269-.799.419-1.342.395z"/></g><g><path fill="#8acd1d" d="M27.03 13.46v-1.177a2.015 2.015 0 0 1-2.013-2.013H23.84c0 1.76 1.431 3.19 3.19 3.19z"/></g><g><path fill="#8acd1d" d="M6.237 12.33c-1.15 0-2.255.262-3.247.754v1.35a6.139 6.139 0 0 1 9.379 5.205 6.137 6.137 0 0 1-9.379 5.203v1.35a7.285 7.285 0 0 0 3.247.754c4.03 0 7.307-3.277 7.307-7.307s-3.277-7.309-7.307-7.309z"/></g><g><path fill="#8acd1d" d="M23.84 29h1.177c0-1.11.903-2.013 2.013-2.013V25.81A3.194 3.194 0 0 0 23.84 29z"/></g></g><g><g><g><path fill="#8acd1d" d="M48.623 27.09H46.83l-1.393-3.523-1.185-3.54-1.17 3.573-1.362 3.493h-1.793L35.81 15.88h2.37l2.644 8.09 2.722-8.09h1.379l2.803 8.09 2.564-8.09h2.37z"/></g><g><path fill="#8acd1d" d="M58.745 19.191h1.875v7.897h-1.842l-.096-1.153c-.45.93-1.681 1.379-2.564 1.395-2.338.016-4.068-1.425-4.068-4.196 0-2.723 1.81-4.15 4.117-4.134 1.057 0 2.066.496 2.515 1.281zm-4.741 3.94c0 1.507 1.04 2.404 2.338 2.404 3.076 0 3.076-4.79 0-4.79-1.297 0-2.338.88-2.338 2.387z"/></g><g><path fill="#8acd1d" d="M64.208 15.89v11.197H62.27V15.89z"/></g><g><path fill="#8acd1d" d="M67.868 15.89v11.197H65.93V15.89z"/></g><g><path fill="#8acd1d" d="M71.237 23.838c.128.978.978 1.681 2.354 1.681.722 0 1.665-.272 2.115-.738l1.25 1.234c-.833.866-2.194 1.281-3.395 1.281-2.723 0-4.341-1.681-4.341-4.213 0-2.403 1.635-4.133 4.196-4.133 2.644 0 4.295 1.635 3.99 4.886h-6.17zm4.294-1.617c-.128-1.024-.93-1.537-2.05-1.537-1.057 0-1.92.513-2.21 1.537z"/></g><g><path fill="#8acd1d" d="M81.338 16.96v2.243h2.18v1.681h-2.194v3.412c0 .752.416 1.12 1.024 1.12.305 0 .657-.096.946-.24l.545 1.667a4.34 4.34 0 0 1-1.619.336c-1.714.065-2.836-.913-2.836-2.883v-3.412H77.91v-1.681h1.474v-2.034z"/></g><g><path fill="#8acd1d" d="M95.27 18.58c-.385-.64-1.442-1.25-2.66-1.25-1.57 0-2.322.657-2.322 1.49 0 .978 1.153 1.25 2.499 1.41 2.338.288 4.518.896 4.518 3.572 0 2.498-2.21 3.572-4.71 3.572-2.29 0-4.051-.706-4.885-2.755l1.763-.913c.496 1.234 1.793 1.779 3.155 1.779 1.33 0 2.58-.464 2.58-1.681 0-1.058-1.106-1.49-2.594-1.651-2.291-.273-4.406-.88-4.406-3.396 0-2.305 2.275-3.25 4.34-3.267 1.747 0 3.557.496 4.407 2.226z"/></g><g><path fill="#8acd1d" d="M105.695 19.191h1.875v7.897h-1.842l-.096-1.153c-.45.93-1.681 1.379-2.564 1.395-2.338.016-4.068-1.425-4.068-4.196 0-2.723 1.81-4.15 4.117-4.134 1.057 0 2.066.496 2.515 1.281zm-4.741 3.94c0 1.507 1.04 2.404 2.338 2.404 3.076 0 3.076-4.79 0-4.79-1.297 0-2.338.88-2.338 2.387z"/></g><g><path fill="#8acd1d" d="M116.789 19.17l-3.365 7.946h-2.115l-3.379-7.946h2.13l1.09 2.61 1.218 3.333 1.202-3.3 1.09-2.643h2.129z"/></g><g><path fill="#8acd1d" d="M119.397 23.838c.128.978.978 1.681 2.354 1.681.722 0 1.665-.272 2.115-.738l1.25 1.234c-.833.866-2.194 1.281-3.395 1.281-2.723 0-4.341-1.681-4.341-4.213 0-2.403 1.635-4.133 4.196-4.133 2.644 0 4.295 1.635 3.99 4.886h-6.17zm4.294-1.617c-.128-1.024-.93-1.537-2.05-1.537-1.057 0-1.92.513-2.21 1.537z"/></g><g><path fill="#8acd1d" d="M128.887 19.19l.145.912c.608-.978 1.425-1.122 2.226-1.122.817 0 1.602.321 2.035.752l-.88 1.698c-.4-.336-.769-.512-1.409-.512-1.025 0-1.97.545-1.97 2.002v4.164h-1.954v-7.897h1.807z"/></g></g><g><g><path fill="#8acd1d" d="M35.81 7.778h2.509v6.453h.787V7.778h2.507V7.05H35.81z"/></g><g><path fill="#8acd1d" d="M44.894 9.012c-.68.01-1.248.258-1.636.71V7.04h-.718v7.191h.738V11.42c0-.978.681-1.687 1.618-1.687 1.2 0 1.45.854 1.45 1.57v2.931h.728V11.3c0-1.43-.813-2.287-2.18-2.287z"/></g><g><path fill="#8acd1d" d="M53.218 11.891l-.01.114h-4.386c.159 1.08 1.03 1.564 1.853 1.564.673 0 1.356-.285 1.665-.694l.077-.103.545.435-.075.097c-.466.612-1.314.992-2.212.992-1.54 0-2.615-1.085-2.615-2.643C48.06 10.141 49.184 9 50.675 9c.81 0 1.51.279 1.968.783.463.512.663 1.242.575 2.108zm-.69-.561c-.058-1.025-.743-1.63-1.853-1.633-.976 0-1.704.651-1.85 1.633z"/></g></g></g></g></g></svg>